<svg xmlns="http://www.w3.org/2000/svg" width="107" height="81" fill="none" viewBox="0 0 107 81"><path fill="#fff" fill-rule="evenodd" d="M70.303 46.157c.066-.002.115-.003.16-.015a.3.3 0 0 0 .122-.068 1.4 1.4 0 0 0 .189-.225c-1.31 1.904-2.846 3.819-4.663 5.85-7.12 7.95-16.021 10.607-19.519 10.667-3.137.056-6.938-1.203-9.5-2.606-2.563-1.4-6.84-5.391-6.84-5.391l-8.869 3.803S23.67 55.98 26.228 53c2.012-2.337.186-4.529-1.86-6.985-.56-.672-1.137-1.364-1.656-2.085q-.367-.51-.784-1.076c-2.458-3.36-6.042-8.258-7.85-14.69-2.01-7.158-.456-13.135 2.805-17.878C20.92 4.42 27.716 2.531 30.155 1.853q.331-.092.548-.156C32.443 1.17 38.525-.134 44.779.01c9.598.227 21.524 3.679 27.225 9.87-.106-.099-.176-.168-.176-.168l-.395-.082c-1.709-.356-2.914-.606-3.519-.187l-.097.067c-.619.427-1.188.819.352 1.686 1.62.912 5.213.662 5.213.662.337.653.664 1.408.97 2.22-.908.047-1.461.123-2.01.293-.485.149-.966.371-1.685.711-1.07.509-2.126 2.418-2.557 3.855-.154.514-.229.967-.195 1.275.05.452-.047 3.533-.173 7.24l-.066 1.913v.001c-.189 5.46-.398 11.499-.296 12.456.277 2.558 2.062 4.412 2.715 4.347.09-.01.16-.012.218-.013m3.076-34.303.002.003zm.002.003v.002zM59.147 9.329c.79-.808.859-2.055-2.428-2.69-4.276-.82-10.22-1.196-15.894-.442-2.109.28-3.986 1.04-4.37 1.973-.503 1.229.034 2.523 1.796 2.703 2.176.227 2.755.327 3.998.67 2.24.613 3.257 2.326 3.907 6.344.769 4.738 1.423 20.23 1.588 24.142l.007.166c.09 2.09.4 5.563.648 6.688.676 3.072 1.859 3.25 2.523 1.359.66-1.88.512-11.065.364-15.93-.08-2.611-.056-6.13-.034-9.44.02-2.864.038-5.57-.013-7.4-.09-3.374.72-5.508 2.58-6.627.907-.546 1.968-.665 2.934-.773.986-.11 1.872-.21 2.394-.743m6.093 3.22c-1.88-.589-2.533.902-2.926 2.72-.394 1.814-.926 7.52-.736 10.115.187 2.597.182 5.192-1.702 5.058-1.664-.117-1.646-.936-1.568-4.286v-.004q.015-.639.029-1.407c.017-1.13.145-2.568.278-4.08.386-4.348.825-9.299-1.158-9.237-.875.03-1.65.782-2.023 1.708-.26.648-1.037 2.892-.725 8.146.23 3.857.108 8.653.024 11.96-.03 1.2-.056 2.206-.058 2.897-.003 1.823-.174 6.144-.299 9.319v.006a511 511 0 0 0-.118 3.133c-.07 2.204.391 6.862 2.458 2.533.628-1.312.83-3.234 1.067-5.497.091-.868.188-1.786.315-2.74.18-1.336.27-2.329.344-3.146v-.001c.117-1.284.194-2.136.515-3.207.523-1.75 1.95-3.602 2.4-.838.149.898-.112 3.267-.353 5.457-.177 1.612-.344 3.128-.33 3.888.061 3.234.29 7.028.934 7.76 1.84 2.092 2.437-.62 2.701-1.852.262-1.232.665-7.394.734-9.34.045-1.278.612-10.665 1.035-17.66v-.004c.221-3.663.403-6.669.449-7.508q.017-.265.048-.571c.12-1.222.276-2.819-1.335-3.323M31.66 24.125c.834-6.983 2.47-8.663 3.2-9.413q.138-.14.229-.247c2.495-3.067 6.646-.301 7.974 7.722 1.327 8.026 2.44 18.336 2.343 20.602-.095 2.273-.868 7.586-3.352 1.709-.616-1.461-1.272-5.038-1.695-7.341v-.001c-.103-.562-.192-1.048-.263-1.408-.084-.427-.139-.971-.198-1.56-.218-2.18-.497-4.962-2.536-4.561-1.331.257-2.065 3.067-2.945 7.519a314 314 0 0 1-.693 3.398c-.365 1.747-.53 2.536-.63 3.662-.151 1.671-.355 3.574-1.679 3.164-1.317-.41-1.354-5.074-1.139-10.15.146-3.405.304-4.613.69-7.563.177-1.352.401-3.07.694-5.532m7.975.382c-.236.62-4.579 2.584-3.859-.977.024-.116.051-.268.083-.444.266-1.466.835-4.606 2.081-3.053 1.399 1.738 1.89 3.972 1.695 4.474m-9.043-6.004c-.233-2.169-3.08-4.863-3.99-5.236-6.512-2.674-11.399 4.296-11.55 4.692-.386 1.007-.36 1.667-.022 3.287.669 3.19 5.326 15.679 8.824 21.813 3.53 6.192 2.437-2.34 1.421-7.618-.669-3.475-1.23-7.384-1.23-7.384s1.793-.931 4.496-2.864c2.594-1.853 2.319-4.305 2.082-6.418zm-6.58-.173c-.946-.764-2.254-.877-2.784.083l-.053.093c-.525.937-1.126 2.008.828 5.02.484.744 3.15-.721 3.197-2.08.04-1.13-.412-2.493-1.188-3.116m82.008-1.428.086.205c1.349 3.197 1.027 8.98-.019 11.974-.215.614-1.88 5.274-3.046 7.369-.232.417-.446.83-.668 1.257-.93 1.793-1.988 3.831-4.974 7.44-3.692 4.463-7.615 3.19-9.497 1.77-1.649-1.24-1.868-5.36-2.112-9.963q-.05-.97-.108-1.958c-.253-4.296-.983-4.622-1.774-4.976a2.8 2.8 0 0 1-.585-.323c-.99-.757-5.764-2.766-5.764-2.766-.787 5.553-1.933 9.889-3.857 13.896.213-1.09-.589-1.528-1.306-1.92a7 7 0 0 1-.504-.293 12 12 0 0 0-.273-.177c-.808-.51-1.305-.826-1.475-3.756-.187-3.243.855-3.954 1.565-4.21.171-.063.395-.109.655-.162.828-.17 2.03-.418 3.118-1.503 1.431-1.421-.516-2.662-2.523-3.442-1.666-.649-1.59-1.193-1.328-3.097.055-.393.117-.843.173-1.364.317-2.917 3.56-1.891 4.128-1.687a99 99 0 0 1 1.574 7.305l5.745-.034s.57-.598 1.412-2.077c.84-1.48 4.493-7.794 7.06-10.48 2.57-2.687 7.223-3.377 10.179-1.789 2.762 1.481 3.684 3.71 4.118 4.76m-5.247-1.848c-2.759-1.06-4.032-.734-5.28.639-.727.8-2.347 5.81-2.822 9.238-.238 1.734-.46 11.037-.46 11.037s-.077 5.878 2.123 2.89c.979-1.336 3.419-6.114 4.368-8.431.259-.629.645-1.476 1.074-2.414 1.148-2.515 2.596-5.685 2.685-7.052.021-.31.064-.65.109-1.007.229-1.8.511-4.015-1.797-4.9M89.899 42.599c-1.232 2.183-.15 3.12 1.34 3.836 1.49.718 2.32-.194 2.808-.933.498-.747.713-1.074.65-2.5-.062-1.428-3.416-2.854-4.798-.403M19.747 58.686c-.04-.15-.12-.234-.264-.35-.143-.111-.233-.109-.233-.109l-.038-.037c.025-.029.021-.046.017-.069a.15.15 0 0 1 .009-.1c.037-.1 0-.115 0-.115s-.102-.003-.086-.1a.4.4 0 0 1 .026-.094c.014-.036.024-.065.014-.103-.01-.028-.028-.03-.048-.03-.024-.002-.05-.003-.066-.05-.04-.133-.083-.105-.083-.105l-.07-.023c-.083-.093-.203-.09-.203-.09l-.118-.088c-.035-.103-.057-.212-.075-.3-.023-.111-.04-.191-.067-.189s-.028.035-.03.08a.4.4 0 0 1-.018.122c-.035.092-.07.046-.07.046-.12-.284-.232-.343-.3-.379-.027-.013-.047-.024-.058-.042a.12.12 0 0 0-.066-.05.3.3 0 0 1-.101-.064c-.095-.08-.16.01-.042.086.088.057.12.16.144.234a.4.4 0 0 0 .025.07c.03.062-.023.099-.079.06-.027-.022-.034-.053-.044-.094a.5.5 0 0 0-.069-.17c-.09-.137-.391-.431-.41-.343-.011.045.011.078.049.133.037.053.088.127.136.256.088.242.018.248-.017.251l-.008.001c-.028.002-.076-.028-.19-.187-.11-.16-.199-.183-.199-.183-.045-.085-.111-.127-.196-.182l-.03-.02a.4.4 0 0 1-.09-.083c-.03-.036-.05-.058-.075-.028-.049.046-.01.146.127.283.105.107.113.126.139.189l.03.072c.058.134.042.162-.046.17-.074.003-.214-.156-.307-.26l-.033-.038-.014-.015a2 2 0 0 0-.194-.175l-.072-.062c-.088-.069-.107.012-.058.107.044.09.185.294.277.417.093.125-.009.164-.088.16-.073-.005-.155-.068-.155-.068a4 4 0 0 0-.207-.111l-.091-.049a1 1 0 0 1-.098-.071c-.055-.044-.106-.084-.122-.07l-.002.002c-.025.023-.068.062.034.227.104.172-.007.165-.007.165-.173-.063-.335.028-.298.166a.6.6 0 0 0 .136.239s-.009.01-.027.08c-.019.075.069.135.069.135.002.077.05.222.178.225.124 0 .125.014.128.035.002.017.005.04.09.067.183.057.472.06.472.06.019.044-.032.08-.032.08s-.644.237-1.535 1.27a.6.6 0 0 0-.061.117 1 1 0 0 1-.055.11 6 6 0 0 0-.382.525 2 2 0 0 1-.104.144c-.039.05-.077.1-.104.145a10 10 0 0 1-.186.303 6 6 0 0 0-.275.47l-.02.048-.017.041a1.4 1.4 0 0 1-.092.198c-.336.521-.521.727-.521.727s-.223.313-1.2.722a3 3 0 0 1-.617.197 10 10 0 0 0-.926.248l-.215.067a9 9 0 0 0-.869.308 9 9 0 0 0-.555.276c-.211.11-.438.23-.66.33 0 0-.014-.076-.076-.199a1 1 0 0 1-.054-.109.3.3 0 0 0-.031-.04l-.029-.034-.02-.039a.2.2 0 0 0-.028-.053q-.026-.034-.06-.067l-.047-.051-.017-.02c-.111-.127-.212-.242-.43-.281q-.037-.011-.068-.026l-.038-.016a.2.2 0 0 1-.053-.02l-.024-.01c-.035-.016-.072-.045-.107-.072a1 1 0 0 0-.073-.053c-.296-.174-.438-.354-.438-.354s-.213-.956-1.004-1.602c-.02-.016-.052-.02-.083-.023a.2.2 0 0 1-.08-.021c-.031-.025-.057-.063-.082-.099a.3.3 0 0 0-.075-.086l-.104.014-.011-.035-.105-.15-.055.062-.068-.032c-.215-.102-.456-.217-.722-.248l-.412.04a3 3 0 0 0-.465.052c-.11.021-.22.058-.326.095a3 3 0 0 0-.903.45 3.6 3.6 0 0 0-.727.754c-.667.773-.896 1.903-.896 1.903-.14.238-.19.616-.19.616-.268.66-.335 1.458-.164 2.106.174.648.625.965.625.965l.002-.076-.27-.576a4 4 0 0 1-.09-.776c-.019-.335.063-.67.102-.833l.015-.063a.4.4 0 0 1 .084-.178c.058.116.208.333.208.333-.04-.169-.139-.539-.139-.539.322-.678.526-.82.526-.82v-.03c-.035-.023-.06-.046-.06-.046.076.019.113.01.113.01.127-.153.245-.267.245-.267.042.084.081.107.081.107l.028-.077.04.012.027-.063c.035-.011.077.014.077.014l.06-.02a.3.3 0 0 0-.165.168l.037.086.144.118.02.03c-.175.257-.252.505-.252.505-.004.074-.037.19-.037.19-.071.157-.078.414-.057.54.023.126.11.219.11.219s.065-.245.103-.361a1 1 0 0 1 .058-.138c.02-.038.04-.078.064-.145a.4.4 0 0 1 .12-.19l.02-.018-.006.054c-.01.105-.032.305.03.418q.044.079.07.136c.033.066.053.107.07.103.027-.014.078-.137.078-.137s.019.035.037.074a.1.1 0 0 1-.004.084c-.193.106-.195.145-.195.145l.063-.002c.17-.007.016.053.016.053-.109.033-.102.077-.102.077l.074.002-.007.037.056.007.009.02-.107.068c.026.225.149.218.345.16.2-.054.38-.114.38-.114l-.01.033s.452-.11.586-.14c.132-.032.232.075.232.075-.046.04-.037.109-.037.109-.086.023-.093.127-.093.127s-.044.023-.011.15c.032.128.173.308.173.308.118.01.158.088.12.209-.036.118.033.245.246.273.215.03.215.118.215.118.079.13.019.248.019.248-.118.14.127.28.127.28.12.13.04.266.04.266l-.033-.044-.005.065-.046-.074-.004.067-.08-.037c.073.12.151.171.151.171v.063l.023.03-.007.05c.033.054-.006.082-.006.082.106.067.027.185.027.185.158.1.243.206.243.206l-.027.058.134.011.097.067.067-.048.053.055.024.063.027.025.003.056c.041.044.009.08.009.08.12.043.065.174.065.174.028.051.058.183.058.183l.157.102.104.049.049.007-.035.155.058-.058.118.146c.118.229.32.447.426.511.109.07.032.14.032.14a1 1 0 0 1 .241.203l-.028.058.135.01.1.069.066-.05.067.087.07-.007-.019.058.146.157.088.007-.04.07.105.03-.016.067.134-.038.049.068.118.088.108.046.05.012.096.115.058-.058.116.148.067.065-.067.051c.04.028.273.155.273.155l.028.098.06.046v.13s.03 0 .146-.021.213.07.213.07c-.058.437.048.39.048.39l.11-.044c.154 0 .196-.095.196-.095.009.042.057.073.101.102.04.025.076.049.082.077.01.055-.095.122-.095.122l.095.042.05-.03v.058l.098-.04c.049.255.116.195.116.195s.115-.049.146-.095c.03-.051.127.106.127.106l.018.107c-.088.234-.057.576-.057.576.134.366.296.514.296.514s.058.546.167.713c.104.162.479 1.322.541 1.519.065.197.144.451.144.451s-.04.077-.01.079c.033 0 .024.053.024.053-.027.048-.02.058-.01.07q.009.009.012.03c.002.039.01.25-.072.259-.079.01-.083.111-.083.111-.101.05-.1.075-.1.096q0 .008-.002.015a.4.4 0 0 1-.079.07l-.002.032s-.053.05-.081.086c-.03.034-.144.127-.144.127l-.06.037-.062.05-.049.029-.046.02-.051.017-.035.03-.025.014c-.174.028-.264.136-.322.268-.058.137 0 .273.072.146.07-.12.178-.12.178-.12s-.012.122.171.139c.178.011.264-.058.292-.081.03-.021.065-.102.065-.102.016-.028.083-.042.083-.042q.045-.04.077-.072a1 1 0 0 1 .104-.092c.067-.054.083-.042.083-.042s.016.104-.019.188c-.037.078-.19.213-.19.213-.157.053-.275.12-.305.138a1 1 0 0 0-.123.116l-.002.03c-.109.067-.303.257-.326.405-.026.15.095.044.16-.023.067-.072.124-.116.124-.116h.042c.035.07.25.102.35 0a.3.3 0 0 1 .22-.109l.02-.002.021-.002c.06-.007.135-.015.236-.178a.44.44 0 0 1 .352-.215c.097-.014.21.064.21.064l-.027.019c-.187.04-.3.21-.333.345-.03.125.037.166.074.085.035-.083.148-.138.171-.14.02-.005.028.027.028.027.025.113.176.141.303.111a.25.25 0 0 0 .18-.135l.008-.01c.02-.038.044-.045.044-.045s-.003.102-.012.144-.118.146-.118.146c-.104.046-.109.078-.109.078-.176.022-.212.054-.231.071l-.01.008c-.02.014-.053.042-.053.042-.16.048-.285.192-.342.268s-.14.266-.063.213c.102-.074.255-.178.255-.178.034-.024.041-.01.052.012.01.019.022.042.054.055.111.042.303-.019.303-.019.037-.062.086-.069.086-.069.222 0 .301-.104.301-.104h.13l.108-.072c.213-.055.153-.136.153-.136.07-.005.63-.007.71.004.082.012.304.077.304.077l.347.014s.32.062.4.023a.38.38 0 0 1 .367.009c.097.05.372.046.402-.016a.3.3 0 0 1 .081-.102c.066.01.12.047.173.084.06.042.117.082.186.076.132-.012-.014-.16-.183-.3-.171-.136-.4-.157-.4-.157l-.007-.016c.03-.01.04-.006.056 0 .022.007.056.018.187 0 .222-.03.176-.115.176-.115.079-.072.213-.063.38-.017.168.054.14-.025-.042-.18-.183-.153-.477-.07-.477-.07l-.049-.034h-.127l-.072-.03q-.05.007-.127.023c-.18.037-.444.09-.597.032-.195-.07-.301-.025-.301-.025l-.141-.084c.078.012.12-.071.12-.071a.28.28 0 0 0 .275-.007s0 .039.188.037c.192-.007.22-.179.22-.179.058-.039.194-.014.194-.014.269.128.17-.025.17-.025-.188-.29-.512-.178-.512-.178-.142-.079-.158-.021-.158-.021a.9.9 0 0 0-.377.035l-.133-.002a2.3 2.3 0 0 0-.35.009c-.154.02-.445-.035-.445-.035-.09-.158-.18-.546-.25-.845-.039-.164-.07-.301-.093-.359-.065-.162-.268-1.166-.268-1.166l-.1-.635c.065-.074.067-.115.078-.337v-.022a.55.55 0 0 1 .087-.262c.042-.077.09-.166.122-.328.049-.25.327-.566.506-.77q.078-.088.121-.142c.118-.162.31-.525.31-.525.077.106.126.06.188-.012.039-.044.05-.121.059-.184a.4.4 0 0 1 .018-.085.7.7 0 0 0 .041-.148l.005-.178c.04-.153.123-.326.123-.326l.034-.102.016-.056s-.02-.009.119-.231c.14-.222.502-.472.502-.472l-.125.148c.074-.047.296-.13.296-.13l.07-.058-.033.095c.29-.326.347-.213.347-.213l.01-.12c.027-.058.074.05.074.05.115-.113.208-.215.208-.215l.01.126.05.011c.016-.093.079-.146.079-.146.03.077-.012.185-.012.185l.047-.08.009.025c.05-.044.079-.16.079-.16l.055.005s.116-.153.102-.262a.5.5 0 0 1 .056-.231.16.16 0 0 0 .08.127v-.187l.05.027c-.01-.192.022-.398.022-.398.25-.238.959-.805.959-.805.093-.072.178-.163.272-.263.095-.102.2-.213.332-.325.266-.225.47-.378.47-.378l-.012-.062.06-.023c.223-.31.429-.688.519-.993l.252-.836-.02-.065c.064-.009.063-.06.061-.113 0-.041-.002-.084.029-.107.074-.05.062-.236.062-.236.095-.18.079-.329.079-.329.042-.06.062-.22.06-.317-.003-.06.015-.15.053-.338.021-.106.048-.241.081-.419.076-.397-.042-.814-.151-1.2a5 5 0 0 1-.122-.485 6 6 0 0 0-.478-.913l-.089-.147c-.086-.141.005-.178.005-.178l.32-.072.497-.158s.118-.08.164-.152a.23.23 0 0 1 .084-.088c.164-.03.14-.165.14-.165.179-.185.119-.532.119-.532s.072-.12-.042-.49c-.118-.373-.27-.397-.27-.397s.006-.011-.033-.085c-.04-.07-.1-.067-.1-.067a.2.2 0 0 1 .065-.079q.019-.014.04-.035c.039-.044.078-.03.078-.03l.057.005c.05.005.085.008.156.007.093-.005.144-.014.19-.042.017-.008.038-.003.058.001.04.01.072.016.046-.084m-8.294 18.671c-.026-.09-.052-.15-.081-.219a3 3 0 0 1-.136-.373 69 69 0 0 1-.45-1.737l.058-.044c.058.183.255.457.255.457.157.39.296 1.023.386 1.456.093.437.15.666.15.666-.103-.171-.182-.206-.182-.206" clip-rule="evenodd"/></svg>